<svg xmlns="http://www.w3.org/2000/svg" viewBox="0 0 96 100"><path d="M49.77 23.07c-3.99-3.9-.02-4.76 4.01-4.33 2 .21 2.78.57 4.51 1.45 9.53 4.84 8.12 10.38 5.28 16.02-.54-5.88-2.11-11.34-8.41-14.92-3.67-2.64-5.76-.74-5 1.53l-.39.25zM70.21 42.2c9.52 10.74 9.84 21.63 3.82 32.61-1.34-1.06-2.68-2.11-4.03-3.17 5.88-9.33 5.92-19.14.21-29.44zM55.87 26.14c1.1 1.97 1.66 4 1.8 6.08 1.85-3.77 1.9-4.53-1.8-6.08zm4.46-6.2c9.33 2.73 12.43 5.62 7.47 12.46.55-5.64-2.66-9.44-7.47-12.46zm-14.11 9.77c1.04 3.61 2.17 7.24-4.14 9.14-3.69 2.8-2.86 7.5-5.13 11.25.02-2.44.3-5.25-.74-6.18-1.82 2.36-3.28 2.34-4.76 2.54 2.25-2.8 4.36-5.62 8.96-8.14 3.05-2.06 4.9-5 5.81-8.61zm-4.88-1.27c-7.61 3.59-14.25 7.83-16.18 15.15-2.02 5.54-4.69 8.04-7.19 11.31 3.52-2.87 7.2-4.99 9.81-11.94 1.28-5.76 7.6-10.09 13.56-14.52zm-2.83 27.05c-.72-1.63-.08-3.1 5.65-3.98 1.85-1.15 2.26-2.66.6-4.68-2.65-3.11-2.32-5.71.88-7.82.18 3.92 2.51 6.86 1.64 12.18 3.65 2.3 6.74 4.66 3.78 7.59.46-2.7-1.63-4.56-5.7-5.76-3.35-.02-5.12 1.21-6.85 2.47zm14.35-17.82c-.01 5.74.7 11.79 3.41 18.69.95 5.31-1.54 7.23-5.43 7.75 4.07-1.95 4.83-5.84 2.25-11.66-3.55-6.19-2.72-10.78-.23-14.78zM22.62 59.52c-.27.78-.5 1.57-.7 2.36-.04.18-.09.36-.13.55-.3 1.37.07 1.91-1.64.86-.66-.4-1.11-.88-1.23-1.48-.22-1.03.32-1.48 1.16-2.09.53-.38 1.11-.71 1.74-1.01 1.73-.83 1.26-.54.8.81zm1.98 6.78c3.37-.07 6.69-.06 10.74-1.29 1.37-.42 2.44-.75 3.88-1.06 3.83-.8 6.32-.84 5.39 1.07-.85 1.92-2.76 2.9-6.18 2.54-1.88-.2-2.47-.28-4.44-.23-5 .12-7.74-.32-9.39-1.03zm2.01 3.87c4.86 5.61 12.52 2.81 20.83-1.94-9.41 7.92-17.76 11.67-20.83 1.94zm33.31-23.69c3.85 8.59 11.86 15.84 5.06 23.3 3.81-8.39-5.19-15.54-5.06-23.3z" fill-rule="evenodd" clip-rule="evenodd" fill="#fff"/><path d="M83.78 78.8c6.62-7.92 10.61-18.08 10.61-29.16 0-10.29-3.43-19.79-9.22-27.43.14-.11.27-.23.38-.37.07-.03.13-.06.19-.09.25-.13.52-.24.75-.41 5.96 7.9 9.49 17.69 9.49 28.3 0 11.38-4.06 21.82-10.83 29.99-.4-.48-.8-.64-1.37-.83zM11.3 21.63c-6.06 7.75-9.67 17.46-9.67 28.01 0 11.52 4.31 22.05 11.42 30.11-.09.13-.27.28-.38.39-.25.24-.49.49-.74.73C4.53 72.53.04 61.6.04 49.64c0-10.69 3.59-20.56 9.63-28.49.4.16.71.18 1.13.18.13.09.28.18.46.27l.04.03zm4.07-9.67c.31-.27.64-.5 1-.68.36-.19.7-.33 1.04-.41.34-.09.65-.11.93-.07.29.04.51.15.67.34l.28.32c.14.16.2.34.15.53-.04.19-.16.37-.34.53-.19.16-.38.25-.6.26a.626.626 0 01-.52-.2l-.14-.15c-.12-.14-.33-.15-.63-.03-.3.11-.61.31-.92.58-.36.31-.6.61-.72.89s-.13.48-.03.59l2.22 2.51c.07.07.16.11.29.1.13-.01.27-.04.42-.09.15-.05.31-.13.46-.22.15-.09.29-.18.4-.29a2.827 2.827 0 00.7-.86c.07-.14.11-.26.12-.38.01-.11-.01-.2-.06-.26l-.57-.64a.565.565 0 01-.14-.55c.05-.21.16-.38.33-.53.19-.16.38-.25.59-.26.21-.02.38.06.53.22l.73.79c.16.18.25.4.27.66.02.27-.02.55-.13.87-.11.31-.28.63-.52.97a5.4 5.4 0 01-.9.97c-.3.26-.62.48-.96.67-.35.19-.69.33-1.02.42-.33.09-.64.12-.93.09-.29-.03-.51-.14-.68-.33L14.1 15.4c-.16-.18-.25-.4-.27-.66-.02-.26.02-.55.12-.85.1-.31.28-.63.51-.96.23-.32.54-.65.91-.97zm4.91-3.52c.2-.13.4-.19.61-.18.21.01.37.1.49.29l2.44 3.74c.2.31.59.28 1.17-.08l1.81-1.16c.24-.15.46-.21.66-.18s.35.13.46.29c.1.15.12.33.07.52-.05.19-.2.37-.44.52l-1.89 1.21c-1.49.95-2.55.94-3.18-.02l-2.55-3.91a.616.616 0 01-.07-.53c.06-.2.2-.36.42-.51zm8.74-4.78c.37-.14.75-.25 1.14-.31.4-.06.77-.08 1.13-.05.35.03.66.11.93.24.26.13.44.31.54.55l1.44 3.54c.09.22.1.46.03.71-.07.26-.21.51-.41.77-.21.26-.48.5-.82.74-.34.24-.73.44-1.18.62-.38.15-.77.26-1.17.32-.4.06-.77.08-1.11.05-.34-.03-.64-.11-.89-.24s-.42-.31-.52-.55l-1.44-3.54c-.09-.23-.11-.47-.04-.73.06-.26.19-.52.4-.77.2-.26.47-.5.8-.74.33-.22.72-.43 1.17-.61zm.55 1.27c-.95.38-1.35.75-1.21 1.11l1.3 3.2c.14.35.68.34 1.62-.03.98-.39 1.39-.76 1.25-1.11l-1.29-3.17c-.15-.38-.71-.38-1.67 0zm8.33-3.79c1.67-.38 2.63-.02 2.89 1.1.14.59-.02 1.04-.49 1.35.61.08.98.38 1.1.91l.25 1.08c.29 1.23-.43 2.05-2.15 2.44l-2.97.68c-.56.13-.89-.03-1-.47l-1.3-5.55c-.1-.44.13-.73.69-.85l2.98-.69zm-.83 6.03l2.34-.53c.45-.1.62-.43.49-.99l-.18-.75c-.08-.36-.36-.49-.82-.38l-1.18.27c-.5.11-.8-.05-.9-.48-.09-.41.1-.66.59-.78l1.19-.27c.47-.11.67-.32.6-.64-.06-.24-.32-.3-.79-.2l-2.33.53.99 4.22zm8.72-3.25c-.27.01-.49-.05-.64-.19a.657.657 0 01-.24-.47c-.01-.19.07-.35.21-.49.15-.14.36-.21.63-.22l.78-.02c.27-.01.48.05.64.18.16.13.24.29.25.49.01.19-.07.35-.23.49s-.36.21-.62.21l-.78.02zm.25-3.88a5.396 5.396 0 012.28.43c.32.15.57.32.76.53.19.21.29.43.3.68l.13 4.79c.01.22-.07.39-.24.52-.17.13-.36.19-.59.2a.983.983 0 01-.62-.17.561.561 0 01-.27-.5l-.13-4.57c-.01-.38-.48-.56-1.42-.53-1.12.03-1.67.22-1.66.56l.13 4.63c.01.22-.07.39-.24.52-.17.13-.37.19-.61.2a.99.99 0 01-.61-.17.636.636 0 01-.3-.5l-.13-4.78c-.01-.23.07-.45.22-.66.15-.22.37-.41.66-.57.28-.17.62-.3 1.02-.41.39-.12.83-.18 1.32-.2zm6.16.27c.24.03.43.11.58.25.16.14.22.31.19.53l-.55 4.42c-.05.37.27.59.95.68l2.14.26c.28.03.49.13.62.28.13.15.19.32.16.51-.02.18-.12.33-.28.44-.17.12-.39.16-.67.12l-2.24-.27c-1.76-.22-2.57-.89-2.43-2.03l.58-4.62c.02-.19.12-.34.29-.45.18-.11.39-.15.66-.12zm14 3.15c.37.14.72.32 1.06.54.33.22.62.46.86.72.24.26.41.53.51.8.1.27.11.53.01.76l-1.41 3.55c-.09.22-.24.4-.47.54-.23.14-.51.23-.83.28-.33.05-.7.04-1.11-.01-.41-.06-.84-.17-1.29-.35-.38-.15-.74-.33-1.08-.56-.33-.22-.62-.46-.85-.71-.23-.25-.39-.51-.48-.78-.09-.26-.09-.51 0-.75l1.41-3.55c.09-.21.24-.4.47-.54.23-.15.5-.24.82-.29.32-.05.69-.05 1.1.01.4.05.83.16 1.28.34zm-.48 1.28c-.95-.37-1.5-.37-1.65-.01L62.8 7.94c-.14.36.26.71 1.2 1.08.98.38 1.54.39 1.68.04l1.26-3.18c.15-.38-.25-.76-1.22-1.14zm3.57 7.37c-.11.18-.28.27-.49.28a.98.98 0 01-.61-.17 1.03 1.03 0 01-.41-.47c-.08-.2-.06-.38.05-.56l3.09-4.81c.25-.38.61-.42 1.1-.11l2.04 1.28c1.83 1.15 2.44 2.21 1.81 3.18l-1.04 1.62c-.63.98-1.8.93-3.52-.15l-.49-.31c-.45-.28-.55-.61-.31-.99.25-.39.6-.45 1.05-.17l.49.31c.76.48 1.23.56 1.43.26l.84-1.31c.19-.3-.14-.73-1.02-1.28L72 7.88l-2.71 4.23zm13 1.65c.2.17.32.35.36.55.04.2-.01.37-.14.52a.61.61 0 01-.51.22c-.21 0-.41-.09-.6-.25l-3.7-3.12c-.2-.17-.32-.36-.34-.56a.63.63 0 01.63-.74c.2 0 .41.08.61.26l3.69 3.12zm-3.49-.85c.17.15.29.32.34.52.06.2.01.38-.13.55l-2.06 2.39c-.08.1-.07.21.05.33.11.13.24.26.37.41.13.15.23.31.31.48.07.17.03.35-.13.54-.3.35-.67.34-1.11-.03-1.25-1.06-1.59-1.92-1.02-2.59l2.28-2.64c.14-.16.31-.23.51-.22.21.02.4.1.59.26zM20.72 83.64c.21.2.39.41.54.65.15.23.27.46.35.69.08.23.12.44.11.64-.01.2-.08.36-.2.48l-.21.21c-.11.11-.23.16-.37.14a.725.725 0 01-.4-.2.706.706 0 01-.22-.39c-.02-.14.01-.27.11-.37l.1-.1c.09-.09.08-.24-.02-.44s-.26-.4-.47-.6c-.24-.23-.46-.37-.67-.44-.21-.07-.34-.06-.42.01l-1.63 1.68c-.05.05-.07.12-.05.21.01.09.04.18.09.28.05.1.11.2.18.3.07.1.15.19.23.26.11.1.22.19.33.26.11.07.22.13.32.17.1.04.19.06.27.06.08 0 .14-.02.18-.06l.42-.43c.11-.11.23-.15.38-.13.15.02.28.09.39.2.12.12.2.25.22.39.02.14-.02.27-.12.37l-.53.55c-.11.12-.26.19-.45.23-.19.03-.39.02-.62-.03-.23-.06-.46-.15-.71-.3a3.7 3.7 0 01-.74-.56c-.2-.19-.38-.4-.53-.62a2.8 2.8 0 01-.36-.68c-.08-.22-.13-.44-.12-.63 0-.2.07-.36.19-.49l1.9-1.96c.11-.12.26-.19.45-.23.18-.03.39-.02.61.03.22.05.46.15.71.29.27.14.52.33.76.56zm3.36 2.82c.22.16.43.34.62.55s.34.42.46.63c.11.22.18.43.21.63.02.2-.02.38-.12.52l-1.56 2.17c-.1.13-.23.23-.41.29-.18.06-.38.07-.61.05a2.95 2.95 0 01-.75-.19 4.47 4.47 0 01-.82-.45c-.24-.17-.45-.35-.64-.56-.19-.21-.34-.41-.45-.63-.11-.21-.18-.41-.19-.61-.02-.19.03-.36.13-.51l1.56-2.17c.1-.14.24-.24.42-.3s.38-.08.61-.06c.23.02.48.08.74.19.26.1.53.25.8.45zm-.54.79c-.58-.41-.96-.51-1.11-.29l-1.42 1.97c-.16.21.05.52.63.93.6.42.98.52 1.13.31l1.4-1.94c.16-.24-.05-.57-.63-.98zm6.04 2.78c.14.08.25.19.31.32s.05.26-.02.39l-2.01 3.45a.38.38 0 01-.33.21.67.67 0 01-.43-.1.71.71 0 01-.3-.32.39.39 0 01.02-.39l2.01-3.45c.07-.13.18-.2.33-.21.13-.01.28.02.42.1zm-2.21-1.25c.22.12.33.3.33.52l.02 2.1c0 .09-.03.18-.08.26-.08.14-.2.23-.37.27s-.32.02-.46-.05a.495.495 0 01-.19-.19.593.593 0 01-.07-.31l-.03-1.87-1.72 2.95a.38.38 0 01-.33.21.74.74 0 01-.43-.1c-.16-.09-.27-.2-.31-.34a.401.401 0 01.03-.37l2.01-3.45c.16-.27.41-.31.76-.12l.84.49zm5.15 2.49c1.38.53 1.92 1.18 1.62 1.94-.13.34-.38.43-.75.29-.38-.15-.52-.38-.39-.68.08-.19-.18-.41-.77-.63-.71-.28-1.11-.33-1.18-.15l-.13.33c-.08.19.22.42.9.69 1.42.55 1.99 1.18 1.71 1.89l-.31.79c-.3.77-1.16.87-2.58.33-1.42-.55-1.99-1.2-1.7-1.94l.16-.4c.12-.29.36-.37.74-.22s.5.36.39.66l-.14.35c-.07.18.22.39.88.64.7.27 1.08.32 1.15.14l.27-.69c.08-.2-.22-.43-.91-.7-1.42-.55-1.98-1.2-1.68-1.94l.14-.35c.31-.78 1.17-.89 2.58-.35zm6.04 2.1c.16.05.29.12.38.24.09.11.11.24.07.39l-.92 3.19c-.23.78-1.07.97-2.54.56-1.48-.42-2.1-1.01-1.88-1.77l.93-3.22c.04-.15.13-.24.28-.29.14-.05.29-.05.44-.01.16.05.29.13.37.24.09.11.11.24.07.39l-.89 3.07c-.07.25.21.47.86.66.74.21 1.15.19 1.22-.06l.89-3.08c.04-.15.13-.24.27-.29a.69.69 0 01.45-.02zm1.3.27c.16.03.3.09.4.19.1.1.14.23.11.38l-.55 3.06c-.05.26.17.42.64.51l1.48.26c.2.03.34.11.42.22.09.11.12.23.1.36-.02.12-.09.22-.21.3-.12.08-.28.1-.47.06l-1.55-.27c-1.22-.21-1.76-.72-1.62-1.51l.57-3.2c.02-.13.1-.23.22-.3.13-.07.28-.09.46-.06zm6.35.79c.18.01.33.07.43.17a.427.427 0 01-.06.68c-.12.08-.27.12-.45.1l-3.39-.27a.61.61 0 01-.43-.18c-.1-.11-.15-.22-.14-.35.01-.13.07-.24.19-.32.12-.08.27-.12.45-.1l3.4.27zm-2.32.93c.16.01.3.06.41.16.11.09.17.21.15.36l-.18 2.18c-.01.09.05.14.16.17.12.03.24.05.38.08s.26.08.37.15c.11.07.16.19.15.36-.03.32-.24.47-.64.43-1.15-.09-1.7-.44-1.65-1.05l.2-2.42c.01-.14.08-.26.2-.33.13-.07.27-.1.45-.09zm4.38-.46c.17 0 .31.03.43.12.12.08.18.2.19.34l.01.42c.01.35-.19.53-.59.54-.35.01-.52.08-.51.21 0 .18.18.27.53.26l.62-.02c.35-.01.53.15.54.47.01.32-.19.48-.6.49l-.61.02c-.29.01-.44.13-.43.38 0 .13.09.22.25.27.01.01.06.01.15.01s.19.02.3.05c.11.03.21.08.3.16.09.07.14.19.14.34l.01.53c0 .15-.05.26-.17.35-.12.09-.26.13-.42.14-.16 0-.3-.03-.43-.12a.402.402 0 01-.19-.34l-.01-.27c-.75-.13-1.14-.47-1.15-1-.01-.47.19-.8.62-.98-.4-.12-.61-.37-.62-.76-.01-.49.34-.8 1.05-.92 0-.13.01-.24.04-.33a.444.444 0 01.32-.31.48.48 0 01.23-.05zM50 98.49c.19 0 .33.04.44.13.11.09.17.2.17.33 0 .14-.05.26-.16.35-.11.09-.26.14-.43.15l-.21.01c-.17 0-.32-.04-.44-.12a.41.41 0 01-.18-.35c0-.13.05-.24.15-.34.1-.1.25-.15.44-.15l.22-.01zm.94-4.08c.16-.02.31 0 .44.07s.2.18.22.33l.4 3.08c.03.26.29.35.76.29l1.49-.19c.2-.03.35 0 .47.08s.18.19.2.32c.02.13-.02.24-.11.35-.09.11-.24.17-.43.2l-1.56.2c-1.23.16-1.9-.16-2-.96l-.42-3.23c-.02-.13.02-.25.12-.35.1-.1.24-.17.42-.19zm5.47-.94c.27-.06.54-.09.83-.09.28 0 .54.03.78.09s.44.15.61.27c.17.12.27.26.31.44l.59 2.6c.04.16.02.32-.06.49-.08.17-.2.33-.37.49-.17.15-.39.3-.65.42-.26.13-.56.23-.89.3-.28.06-.56.09-.84.1-.28 0-.54-.03-.77-.09-.23-.06-.43-.15-.59-.26a.744.744 0 01-.3-.43l-.59-2.6a.82.82 0 01.05-.51c.07-.17.19-.33.36-.49.17-.15.38-.29.64-.42.27-.13.56-.23.89-.31zm.24.93c-.7.16-1.02.37-.96.63l.54 2.35c.06.26.43.31 1.12.16.72-.16 1.05-.37.99-.63l-.53-2.32c-.07-.28-.46-.34-1.16-.19zm5.16-.78c1.19-.4 1.92-.18 2.21.65l.3.88c.26.77-.31 1.4-1.72 1.87-1.48.49-2.35.36-2.61-.39l-.82-2.4c-.27-.78.32-1.41 1.75-1.89l1.06-.36c.18-.06.34-.06.47-.01.13.06.22.15.26.27.04.13.03.26-.05.38a.72.72 0 01-.36.27l-1.05.35c-.68.23-.99.46-.91.69l.76 2.23c.07.2.41.2 1.03 0 .75-.25 1.08-.48 1.01-.68l-.26-.77c-.09-.27-.35-.33-.77-.19l-.55.18c-.18.06-.34.06-.47.01a.412.412 0 01-.26-.27.439.439 0 01.04-.37c.07-.12.19-.22.38-.28l.56-.17zm1.92-2.33c.15-.07.3-.09.44-.06s.25.11.31.25l1.64 3.58c.07.15.07.29-.01.42-.07.13-.18.23-.34.3-.15.07-.3.08-.44.05s-.25-.13-.32-.28l-1.64-3.58a.407.407 0 01.02-.4c.09-.12.2-.21.34-.28zm3.28-1.69c1.32-.67 2.16-.65 2.54.08.17.32.08.57-.27.75-.37.19-.63.14-.78-.16-.1-.19-.43-.13-.99.15-.68.35-.98.61-.89.78l.16.31c.1.19.47.11 1.12-.22 1.36-.69 2.21-.7 2.57-.02l.39.75c.38.73-.1 1.44-1.46 2.13-1.36.69-2.22.69-2.59-.02l-.2-.38c-.15-.28-.04-.51.32-.7.36-.18.61-.13.76.15l.18.34c.09.17.44.09 1.07-.23.67-.34.95-.59.87-.76l-.35-.66c-.1-.19-.48-.12-1.13.22-1.35.69-2.22.68-2.59-.03l-.18-.34c-.38-.74.1-1.45 1.45-2.14zm5.02-3.06c.15-.11.3-.15.44-.14.14.01.25.07.33.18.08.11.1.24.07.38-.04.14-.13.26-.28.36l-2.77 1.95c-.15.11-.3.15-.45.13a.453.453 0 01-.33-.18.403.403 0 01-.06-.37c.03-.14.13-.26.28-.36l2.77-1.95zm-1.17 2.19a.73.73 0 01.42-.14c.15 0 .27.06.35.18l1.29 1.78c.05.07.13.08.24.03.11-.06.22-.11.34-.18.12-.06.25-.1.38-.12.13-.02.25.04.35.18.19.26.12.51-.21.74-.94.66-1.59.74-1.95.24l-1.42-1.98a.379.379 0 01-.06-.38c.03-.14.13-.25.27-.35zm2.22-3.01c.13-.1.27-.15.42-.16.15 0 .27.05.36.17l2.45 3.09c.1.13.13.27.1.41-.04.15-.12.27-.25.37-.13.1-.27.15-.42.15-.15 0-.27-.07-.38-.2l-2.45-3.09a.427.427 0 01-.08-.39c.04-.13.12-.25.25-.35zm2.21-2.06c.21-.2.43-.36.68-.51.24-.14.48-.25.71-.32.23-.07.45-.09.65-.07.2.02.36.09.48.22l.21.21c.11.11.15.23.12.37-.02.14-.1.26-.22.38s-.26.18-.41.2a.42.42 0 01-.37-.13l-.1-.1c-.09-.09-.24-.09-.44 0-.21.09-.42.23-.63.43-.24.23-.4.44-.48.64-.08.2-.08.34 0 .41l1.62 1.69c.05.05.12.07.21.06.09-.01.18-.04.29-.08.11-.04.21-.1.31-.16.1-.07.19-.14.27-.21.11-.1.2-.21.28-.32.08-.11.14-.21.18-.31.04-.1.07-.19.07-.27.01-.08-.01-.14-.05-.18l-.42-.43a.423.423 0 01-.12-.38c.03-.14.1-.27.22-.38.13-.12.26-.18.4-.2.14-.02.27.03.37.14l.53.55c.11.12.18.27.21.46.02.18 0 .39-.06.61-.07.22-.18.45-.34.69a4.22 4.22 0 01-1.25 1.2c-.24.14-.47.25-.7.32-.23.07-.45.1-.65.09a.713.713 0 01-.49-.21L74.5 86.1a.857.857 0 01-.21-.45c-.02-.18-.01-.38.06-.6.06-.22.17-.44.33-.68.16-.24.36-.48.61-.71z" fill="#fff"/></svg>