<?xml version="1.0" encoding="utf-8"?>
<!-- Generator: Adobe Illustrator 23.0.2, SVG Export Plug-In . SVG Version: 6.00 Build 0)  -->
<svg version="1.1" id="Layer_1" xmlns="http://www.w3.org/2000/svg" xmlns:xlink="http://www.w3.org/1999/xlink" x="0px" y="0px"
	 viewBox="0 0 96 100" style="enable-background:new 0 0 96 100;" xml:space="preserve">
<style type="text/css">
	.st0{fill-rule:evenodd;clip-rule:evenodd;fill:#FFFFFF;}
	.st1{fill:#FFFFFF;}
</style>
<g>
	<path class="st0" d="M49.77,23.07c-3.99-3.9-0.02-4.76,4.01-4.33c2,0.21,2.78,0.57,4.51,1.45c9.53,4.84,8.12,10.38,5.28,16.02
		c-0.54-5.88-2.11-11.34-8.41-14.92c-3.67-2.64-5.76-0.74-5,1.53L49.77,23.07L49.77,23.07z M70.21,42.2
		c9.52,10.74,9.84,21.63,3.82,32.61c-1.34-1.06-2.68-2.11-4.03-3.17C75.88,62.31,75.92,52.5,70.21,42.2L70.21,42.2z M55.87,26.14
		c1.1,1.97,1.66,4,1.8,6.08C59.52,28.45,59.57,27.69,55.87,26.14L55.87,26.14z M60.33,19.94c9.33,2.73,12.43,5.62,7.47,12.46
		C68.35,26.76,65.14,22.96,60.33,19.94L60.33,19.94z M46.22,29.71c1.04,3.61,2.17,7.24-4.14,9.14c-3.69,2.8-2.86,7.5-5.13,11.25
		c0.02-2.44,0.3-5.25-0.74-6.18c-1.82,2.36-3.28,2.34-4.76,2.54c2.25-2.8,4.36-5.62,8.96-8.14C43.46,36.26,45.31,33.32,46.22,29.71
		L46.22,29.71z M41.34,28.44c-7.61,3.59-14.25,7.83-16.18,15.15c-2.02,5.54-4.69,8.04-7.19,11.31c3.52-2.87,7.2-4.99,9.81-11.94
		C29.06,37.2,35.38,32.87,41.34,28.44L41.34,28.44z M38.51,55.49c-0.72-1.63-0.08-3.1,5.65-3.98c1.85-1.15,2.26-2.66,0.6-4.68
		c-2.65-3.11-2.32-5.71,0.88-7.82c0.18,3.92,2.51,6.86,1.64,12.18c3.65,2.3,6.74,4.66,3.78,7.59c0.46-2.7-1.63-4.56-5.7-5.76
		C42.01,53,40.24,54.23,38.51,55.49L38.51,55.49z M52.86,37.67c-0.01,5.74,0.7,11.79,3.41,18.69c0.95,5.31-1.54,7.23-5.43,7.75
		c4.07-1.95,4.83-5.84,2.25-11.66C49.54,46.26,50.37,41.67,52.86,37.67L52.86,37.67z M22.62,59.52c-0.27,0.78-0.5,1.57-0.7,2.36
		c-0.04,0.18-0.09,0.36-0.13,0.55c-0.3,1.37,0.07,1.91-1.64,0.86c-0.66-0.4-1.11-0.88-1.23-1.48c-0.22-1.03,0.32-1.48,1.16-2.09
		c0.53-0.38,1.11-0.71,1.74-1.01C23.55,57.88,23.08,58.17,22.62,59.52L22.62,59.52z M24.6,66.3c3.37-0.07,6.69-0.06,10.74-1.29
		c1.37-0.42,2.44-0.75,3.88-1.06c3.83-0.8,6.32-0.84,5.39,1.07c-0.85,1.92-2.76,2.9-6.18,2.54c-1.88-0.2-2.47-0.28-4.44-0.23
		C28.99,67.45,26.25,67.01,24.6,66.3L24.6,66.3z M26.61,70.17c4.86,5.61,12.52,2.81,20.83-1.94C38.03,76.15,29.68,79.9,26.61,70.17
		L26.61,70.17z M59.92,46.48c3.85,8.59,11.86,15.84,5.06,23.3C68.79,61.39,59.79,54.24,59.92,46.48L59.92,46.48z"/>
	<path class="st1" d="M83.78,78.8c6.62-7.92,10.61-18.08,10.61-29.16c0-10.29-3.43-19.79-9.22-27.43c0.14-0.11,0.27-0.23,0.38-0.37
		c0.07-0.03,0.13-0.06,0.19-0.09c0.25-0.13,0.52-0.24,0.75-0.41c5.96,7.9,9.49,17.69,9.49,28.3c0,11.38-4.06,21.82-10.83,29.99
		C84.75,79.15,84.35,78.99,83.78,78.8L83.78,78.8z"/>
	<path class="st1" d="M11.3,21.63c-6.06,7.75-9.67,17.46-9.67,28.01c0,11.52,4.31,22.05,11.42,30.11c-0.09,0.13-0.27,0.28-0.38,0.39
		c-0.25,0.24-0.49,0.49-0.74,0.73C4.53,72.53,0.04,61.6,0.04,49.64c0-10.69,3.59-20.56,9.63-28.49c0.4,0.16,0.71,0.18,1.13,0.18
		c0.13,0.09,0.28,0.18,0.46,0.27L11.3,21.63L11.3,21.63z"/>
	<path class="st1" d="M15.37,11.96c0.31-0.27,0.64-0.5,1-0.68c0.36-0.19,0.7-0.33,1.04-0.41c0.34-0.09,0.65-0.11,0.93-0.07
		c0.29,0.04,0.51,0.15,0.67,0.34l0.28,0.32c0.14,0.16,0.2,0.34,0.15,0.53c-0.04,0.19-0.16,0.37-0.34,0.53
		c-0.19,0.16-0.38,0.25-0.6,0.26c-0.21,0.01-0.38-0.05-0.52-0.2l-0.14-0.15c-0.12-0.14-0.33-0.15-0.63-0.03
		c-0.3,0.11-0.61,0.31-0.92,0.58c-0.36,0.31-0.6,0.61-0.72,0.89c-0.12,0.28-0.13,0.48-0.03,0.59l2.22,2.51
		c0.07,0.07,0.16,0.11,0.29,0.1c0.13-0.01,0.27-0.04,0.42-0.09c0.15-0.05,0.31-0.13,0.46-0.22c0.15-0.09,0.29-0.18,0.4-0.29
		c0.16-0.14,0.3-0.28,0.42-0.43c0.12-0.15,0.21-0.3,0.28-0.43c0.07-0.14,0.11-0.26,0.12-0.38c0.01-0.11-0.01-0.2-0.06-0.26
		l-0.57-0.64c-0.15-0.16-0.19-0.35-0.14-0.55c0.05-0.21,0.16-0.38,0.33-0.53c0.19-0.16,0.38-0.25,0.59-0.26
		c0.21-0.02,0.38,0.06,0.53,0.22L21.56,14c0.16,0.18,0.25,0.4,0.27,0.66c0.02,0.27-0.02,0.55-0.13,0.87
		c-0.11,0.31-0.28,0.63-0.52,0.97c-0.24,0.34-0.54,0.66-0.9,0.97c-0.3,0.26-0.62,0.48-0.96,0.67c-0.35,0.19-0.69,0.33-1.02,0.42
		c-0.33,0.09-0.64,0.12-0.93,0.09c-0.29-0.03-0.51-0.14-0.68-0.33L14.1,15.4c-0.16-0.18-0.25-0.4-0.27-0.66
		c-0.02-0.26,0.02-0.55,0.12-0.85c0.1-0.31,0.28-0.63,0.51-0.96C14.69,12.61,15,12.28,15.37,11.96L15.37,11.96z M20.28,8.44
		c0.2-0.13,0.4-0.19,0.61-0.18c0.21,0.01,0.37,0.1,0.49,0.29l2.44,3.74c0.2,0.31,0.59,0.28,1.17-0.08l1.81-1.16
		c0.24-0.15,0.46-0.21,0.66-0.18c0.2,0.03,0.35,0.13,0.46,0.29c0.1,0.15,0.12,0.33,0.07,0.52c-0.05,0.19-0.2,0.37-0.44,0.52
		l-1.89,1.21c-1.49,0.95-2.55,0.94-3.18-0.02l-2.55-3.91c-0.1-0.16-0.13-0.34-0.07-0.53C19.92,8.75,20.06,8.59,20.28,8.44
		L20.28,8.44z M29.02,3.66c0.37-0.14,0.75-0.25,1.14-0.31c0.4-0.06,0.77-0.08,1.13-0.05c0.35,0.03,0.66,0.11,0.93,0.24
		c0.26,0.13,0.44,0.31,0.54,0.55l1.44,3.54c0.09,0.22,0.1,0.46,0.03,0.71c-0.07,0.26-0.21,0.51-0.41,0.77
		c-0.21,0.26-0.48,0.5-0.82,0.74c-0.34,0.24-0.73,0.44-1.18,0.62c-0.38,0.15-0.77,0.26-1.17,0.32c-0.4,0.06-0.77,0.08-1.11,0.05
		c-0.34-0.03-0.64-0.11-0.89-0.24c-0.25-0.13-0.42-0.31-0.52-0.55l-1.44-3.54c-0.09-0.23-0.11-0.47-0.04-0.73
		c0.06-0.26,0.19-0.52,0.4-0.77c0.2-0.26,0.47-0.5,0.8-0.74C28.18,4.05,28.57,3.84,29.02,3.66L29.02,3.66z M29.57,4.93
		c-0.95,0.38-1.35,0.75-1.21,1.11l1.3,3.2c0.14,0.35,0.68,0.34,1.62-0.03c0.98-0.39,1.39-0.76,1.25-1.11l-1.29-3.17
		C31.09,4.55,30.53,4.55,29.57,4.93L29.57,4.93z M37.9,1.14c1.67-0.38,2.63-0.02,2.89,1.1c0.14,0.59-0.02,1.04-0.49,1.35
		c0.61,0.08,0.98,0.38,1.1,0.91l0.25,1.08c0.29,1.23-0.43,2.05-2.15,2.44l-2.97,0.68c-0.56,0.13-0.89-0.03-1-0.47l-1.3-5.55
		c-0.1-0.44,0.13-0.73,0.69-0.85L37.9,1.14L37.9,1.14z M37.07,7.17l2.34-0.53c0.45-0.1,0.62-0.43,0.49-0.99L39.72,4.9
		c-0.08-0.36-0.36-0.49-0.82-0.38l-1.18,0.27c-0.5,0.11-0.8-0.05-0.9-0.48c-0.09-0.41,0.1-0.66,0.59-0.78l1.19-0.27
		c0.47-0.11,0.67-0.32,0.6-0.64c-0.06-0.24-0.32-0.3-0.79-0.2l-2.33,0.53L37.07,7.17L37.07,7.17z M45.79,3.92
		c-0.27,0.01-0.49-0.05-0.64-0.19c-0.15-0.13-0.23-0.29-0.24-0.47c-0.01-0.19,0.07-0.35,0.21-0.49c0.15-0.14,0.36-0.21,0.63-0.22
		l0.78-0.02c0.27-0.01,0.48,0.05,0.64,0.18C47.33,2.84,47.41,3,47.42,3.2c0.01,0.19-0.07,0.35-0.23,0.49
		c-0.16,0.14-0.36,0.21-0.62,0.21L45.79,3.92L45.79,3.92z M46.04,0.04c0.41-0.01,0.82,0.02,1.21,0.1c0.4,0.08,0.75,0.19,1.07,0.33
		c0.32,0.15,0.57,0.32,0.76,0.53c0.19,0.21,0.29,0.43,0.3,0.68l0.13,4.79c0.01,0.22-0.07,0.39-0.24,0.52
		c-0.17,0.13-0.36,0.19-0.59,0.2c-0.24,0.01-0.45-0.05-0.62-0.17c-0.18-0.12-0.27-0.28-0.27-0.5l-0.13-4.57
		c-0.01-0.38-0.48-0.56-1.42-0.53c-1.12,0.03-1.67,0.22-1.66,0.56l0.13,4.63c0.01,0.22-0.07,0.39-0.24,0.52
		c-0.17,0.13-0.37,0.19-0.61,0.2c-0.23,0.01-0.43-0.05-0.61-0.17c-0.18-0.12-0.28-0.28-0.3-0.5l-0.13-4.78
		c-0.01-0.23,0.07-0.45,0.22-0.66c0.15-0.22,0.37-0.41,0.66-0.57c0.28-0.17,0.62-0.3,1.02-0.41C45.11,0.12,45.55,0.06,46.04,0.04
		L46.04,0.04z M52.2,0.31c0.24,0.03,0.43,0.11,0.58,0.25C52.94,0.7,53,0.87,52.97,1.09l-0.55,4.42c-0.05,0.37,0.27,0.59,0.95,0.68
		l2.14,0.26c0.28,0.03,0.49,0.13,0.62,0.28c0.13,0.15,0.19,0.32,0.16,0.51c-0.02,0.18-0.12,0.33-0.28,0.44
		c-0.17,0.12-0.39,0.16-0.67,0.12L53.1,7.53c-1.76-0.22-2.57-0.89-2.43-2.03l0.58-4.62c0.02-0.19,0.12-0.34,0.29-0.45
		C51.72,0.32,51.93,0.28,52.2,0.31L52.2,0.31z M66.2,3.46C66.57,3.6,66.92,3.78,67.26,4c0.33,0.22,0.62,0.46,0.86,0.72
		c0.24,0.26,0.41,0.53,0.51,0.8c0.1,0.27,0.11,0.53,0.01,0.76l-1.41,3.55c-0.09,0.22-0.24,0.4-0.47,0.54
		c-0.23,0.14-0.51,0.23-0.83,0.28c-0.33,0.05-0.7,0.04-1.11-0.01c-0.41-0.06-0.84-0.17-1.29-0.35c-0.38-0.15-0.74-0.33-1.08-0.56
		c-0.33-0.22-0.62-0.46-0.85-0.71c-0.23-0.25-0.39-0.51-0.48-0.78c-0.09-0.26-0.09-0.51,0-0.75l1.41-3.55
		C62.62,3.73,62.77,3.54,63,3.4c0.23-0.15,0.5-0.24,0.82-0.29c0.32-0.05,0.69-0.05,1.1,0.01C65.32,3.17,65.75,3.28,66.2,3.46
		L66.2,3.46z M65.72,4.74c-0.95-0.37-1.5-0.37-1.65-0.01L62.8,7.94C62.66,8.3,63.06,8.65,64,9.02c0.98,0.38,1.54,0.39,1.68,0.04
		l1.26-3.18C67.09,5.5,66.69,5.12,65.72,4.74L65.72,4.74z M69.29,12.11c-0.11,0.18-0.28,0.27-0.49,0.28
		c-0.21,0.01-0.42-0.04-0.61-0.17c-0.19-0.12-0.33-0.28-0.41-0.47c-0.08-0.2-0.06-0.38,0.05-0.56l3.09-4.81
		c0.25-0.38,0.61-0.42,1.1-0.11l2.04,1.28c1.83,1.15,2.44,2.21,1.81,3.18l-1.04,1.62c-0.63,0.98-1.8,0.93-3.52-0.15l-0.49-0.31
		c-0.45-0.28-0.55-0.61-0.31-0.99c0.25-0.39,0.6-0.45,1.05-0.17l0.49,0.31c0.76,0.48,1.23,0.56,1.43,0.26l0.84-1.31
		c0.19-0.3-0.14-0.73-1.02-1.28L72,7.88L69.29,12.11L69.29,12.11z M82.29,13.76c0.2,0.17,0.32,0.35,0.36,0.55
		c0.04,0.2-0.01,0.37-0.14,0.52c-0.13,0.15-0.3,0.23-0.51,0.22c-0.21,0-0.41-0.09-0.6-0.25l-3.7-3.12c-0.2-0.17-0.32-0.36-0.34-0.56
		c-0.03-0.21,0.02-0.38,0.14-0.52c0.12-0.14,0.29-0.22,0.49-0.22c0.2,0,0.41,0.08,0.61,0.26L82.29,13.76L82.29,13.76z M78.8,12.91
		c0.17,0.15,0.29,0.32,0.34,0.52c0.06,0.2,0.01,0.38-0.13,0.55l-2.06,2.39c-0.08,0.1-0.07,0.21,0.05,0.33
		c0.11,0.13,0.24,0.26,0.37,0.41c0.13,0.15,0.23,0.31,0.31,0.48c0.07,0.17,0.03,0.35-0.13,0.54c-0.3,0.35-0.67,0.34-1.11-0.03
		c-1.25-1.06-1.59-1.92-1.02-2.59l2.28-2.64c0.14-0.16,0.31-0.23,0.51-0.22C78.42,12.67,78.61,12.75,78.8,12.91L78.8,12.91z"/>
	<path class="st1" d="M20.72,83.64c0.21,0.2,0.39,0.41,0.54,0.65c0.15,0.23,0.27,0.46,0.35,0.69c0.08,0.23,0.12,0.44,0.11,0.64
		c-0.01,0.2-0.08,0.36-0.2,0.48l-0.21,0.21c-0.11,0.11-0.23,0.16-0.37,0.14c-0.14-0.02-0.27-0.08-0.4-0.2
		c-0.12-0.12-0.2-0.25-0.22-0.39c-0.02-0.14,0.01-0.27,0.11-0.37l0.1-0.1c0.09-0.09,0.08-0.24-0.02-0.44c-0.1-0.2-0.26-0.4-0.47-0.6
		c-0.24-0.23-0.46-0.37-0.67-0.44c-0.21-0.07-0.34-0.06-0.42,0.01l-1.63,1.68c-0.05,0.05-0.07,0.12-0.05,0.21
		c0.01,0.09,0.04,0.18,0.09,0.28c0.05,0.1,0.11,0.2,0.18,0.3c0.07,0.1,0.15,0.19,0.23,0.26c0.11,0.1,0.22,0.19,0.33,0.26
		c0.11,0.07,0.22,0.13,0.32,0.17c0.1,0.04,0.19,0.06,0.27,0.06c0.08,0,0.14-0.02,0.18-0.06l0.42-0.43c0.11-0.11,0.23-0.15,0.38-0.13
		c0.15,0.02,0.28,0.09,0.39,0.2c0.12,0.12,0.2,0.25,0.22,0.39c0.02,0.14-0.02,0.27-0.12,0.37l-0.53,0.55
		c-0.11,0.12-0.26,0.19-0.45,0.23c-0.19,0.03-0.39,0.02-0.62-0.03c-0.23-0.06-0.46-0.15-0.71-0.3c-0.25-0.14-0.5-0.33-0.74-0.56
		c-0.2-0.19-0.38-0.4-0.53-0.62c-0.16-0.23-0.28-0.45-0.36-0.68c-0.08-0.22-0.13-0.44-0.12-0.63c0-0.2,0.07-0.36,0.19-0.49l1.9-1.96
		c0.11-0.12,0.26-0.19,0.45-0.23c0.18-0.03,0.39-0.02,0.61,0.03c0.22,0.05,0.46,0.15,0.71,0.29C20.23,83.22,20.48,83.41,20.72,83.64
		L20.72,83.64z M24.08,86.46c0.22,0.16,0.43,0.34,0.62,0.55s0.34,0.42,0.46,0.63c0.11,0.22,0.18,0.43,0.21,0.63
		c0.02,0.2-0.02,0.38-0.12,0.52l-1.56,2.17c-0.1,0.13-0.23,0.23-0.41,0.29c-0.18,0.06-0.38,0.07-0.61,0.05
		c-0.23-0.02-0.48-0.09-0.75-0.19c-0.27-0.11-0.54-0.26-0.82-0.45c-0.24-0.17-0.45-0.35-0.64-0.56c-0.19-0.21-0.34-0.41-0.45-0.63
		c-0.11-0.21-0.18-0.41-0.19-0.61c-0.02-0.19,0.03-0.36,0.13-0.51l1.56-2.17c0.1-0.14,0.24-0.24,0.42-0.3s0.38-0.08,0.61-0.06
		c0.23,0.02,0.48,0.08,0.74,0.19C23.54,86.11,23.81,86.26,24.08,86.46L24.08,86.46z M23.54,87.25c-0.58-0.41-0.96-0.51-1.11-0.29
		l-1.42,1.97c-0.16,0.21,0.05,0.52,0.63,0.93c0.6,0.42,0.98,0.52,1.13,0.31l1.4-1.94C24.33,87.99,24.12,87.66,23.54,87.25
		L23.54,87.25z M29.58,90.03c0.14,0.08,0.25,0.19,0.31,0.32c0.06,0.13,0.05,0.26-0.02,0.39l-2.01,3.45
		c-0.07,0.13-0.18,0.2-0.33,0.21c-0.15,0.02-0.29-0.02-0.43-0.1c-0.14-0.08-0.24-0.19-0.3-0.32c-0.06-0.13-0.06-0.26,0.02-0.39
		l2.01-3.45c0.07-0.13,0.18-0.2,0.33-0.21C29.29,89.92,29.44,89.95,29.58,90.03L29.58,90.03z M27.37,88.78
		c0.22,0.12,0.33,0.3,0.33,0.52l0.02,2.1c0,0.09-0.03,0.18-0.08,0.26c-0.08,0.14-0.2,0.23-0.37,0.27s-0.32,0.02-0.46-0.05
		c-0.08-0.04-0.14-0.11-0.19-0.19c-0.05-0.08-0.07-0.19-0.07-0.31l-0.03-1.87l-1.72,2.95c-0.07,0.13-0.18,0.2-0.33,0.21
		c-0.15,0.01-0.29-0.02-0.43-0.1c-0.16-0.09-0.27-0.2-0.31-0.34c-0.05-0.13-0.04-0.26,0.03-0.37l2.01-3.45
		c0.16-0.27,0.41-0.31,0.76-0.12L27.37,88.78L27.37,88.78z M32.52,91.27c1.38,0.53,1.92,1.18,1.62,1.94
		c-0.13,0.34-0.38,0.43-0.75,0.29c-0.38-0.15-0.52-0.38-0.39-0.68c0.08-0.19-0.18-0.41-0.77-0.63c-0.71-0.28-1.11-0.33-1.18-0.15
		l-0.13,0.33c-0.08,0.19,0.22,0.42,0.9,0.69c1.42,0.55,1.99,1.18,1.71,1.89l-0.31,0.79c-0.3,0.77-1.16,0.87-2.58,0.33
		c-1.42-0.55-1.99-1.2-1.7-1.94l0.16-0.4c0.12-0.29,0.36-0.37,0.74-0.22c0.38,0.15,0.5,0.36,0.39,0.66l-0.14,0.35
		c-0.07,0.18,0.22,0.39,0.88,0.64c0.7,0.27,1.08,0.32,1.15,0.14l0.27-0.69c0.08-0.2-0.22-0.43-0.91-0.7
		c-1.42-0.55-1.98-1.2-1.68-1.94l0.14-0.35C30.25,90.84,31.11,90.73,32.52,91.27L32.52,91.27z M38.56,93.37
		c0.16,0.05,0.29,0.12,0.38,0.24c0.09,0.11,0.11,0.24,0.07,0.39l-0.92,3.19c-0.23,0.78-1.07,0.97-2.54,0.56
		c-1.48-0.42-2.1-1.01-1.88-1.77l0.93-3.22c0.04-0.15,0.13-0.24,0.28-0.29c0.14-0.05,0.29-0.05,0.44-0.01
		c0.16,0.05,0.29,0.13,0.37,0.24c0.09,0.11,0.11,0.24,0.07,0.39l-0.89,3.07c-0.07,0.25,0.21,0.47,0.86,0.66
		c0.74,0.21,1.15,0.19,1.22-0.06l0.89-3.08c0.04-0.15,0.13-0.24,0.27-0.29C38.25,93.33,38.4,93.33,38.56,93.37L38.56,93.37z
		 M39.86,93.64c0.16,0.03,0.3,0.09,0.4,0.19c0.1,0.1,0.14,0.23,0.11,0.38l-0.55,3.06c-0.05,0.26,0.17,0.42,0.64,0.51l1.48,0.26
		c0.2,0.03,0.34,0.11,0.42,0.22c0.09,0.11,0.12,0.23,0.1,0.36c-0.02,0.12-0.09,0.22-0.21,0.3c-0.12,0.08-0.28,0.1-0.47,0.06
		l-1.55-0.27c-1.22-0.21-1.76-0.72-1.62-1.51l0.57-3.2c0.02-0.13,0.1-0.23,0.22-0.3C39.53,93.63,39.68,93.61,39.86,93.64
		L39.86,93.64z M46.21,94.43c0.18,0.01,0.33,0.07,0.43,0.17c0.1,0.1,0.15,0.21,0.14,0.35c-0.01,0.14-0.08,0.25-0.2,0.33
		c-0.12,0.08-0.27,0.12-0.45,0.1l-3.39-0.27c-0.18-0.01-0.33-0.07-0.43-0.18c-0.1-0.11-0.15-0.22-0.14-0.35
		c0.01-0.13,0.07-0.24,0.19-0.32c0.12-0.08,0.27-0.12,0.45-0.1L46.21,94.43L46.21,94.43z M43.89,95.36c0.16,0.01,0.3,0.06,0.41,0.16
		c0.11,0.09,0.17,0.21,0.15,0.36l-0.18,2.18c-0.01,0.09,0.05,0.14,0.16,0.17c0.12,0.03,0.24,0.05,0.38,0.08
		c0.14,0.03,0.26,0.08,0.37,0.15c0.11,0.07,0.16,0.19,0.15,0.36c-0.03,0.32-0.24,0.47-0.64,0.43c-1.15-0.09-1.7-0.44-1.65-1.05
		l0.2-2.42c0.01-0.14,0.08-0.26,0.2-0.33C43.57,95.38,43.71,95.35,43.89,95.36L43.89,95.36z M48.27,94.9c0.17,0,0.31,0.03,0.43,0.12
		c0.12,0.08,0.18,0.2,0.19,0.34l0.01,0.42c0.01,0.35-0.19,0.53-0.59,0.54c-0.35,0.01-0.52,0.08-0.51,0.21
		c0,0.18,0.18,0.27,0.53,0.26l0.62-0.02c0.35-0.01,0.53,0.15,0.54,0.47c0.01,0.32-0.19,0.48-0.6,0.49l-0.61,0.02
		c-0.29,0.01-0.44,0.13-0.43,0.38c0,0.13,0.09,0.22,0.25,0.27c0.01,0.01,0.06,0.01,0.15,0.01c0.09,0,0.19,0.02,0.3,0.05
		c0.11,0.03,0.21,0.08,0.3,0.16c0.09,0.07,0.14,0.19,0.14,0.34L49,99.49c0,0.15-0.05,0.26-0.17,0.35c-0.12,0.09-0.26,0.13-0.42,0.14
		c-0.16,0-0.3-0.03-0.43-0.12c-0.12-0.08-0.19-0.2-0.19-0.34l-0.01-0.27c-0.75-0.13-1.14-0.47-1.15-1c-0.01-0.47,0.19-0.8,0.62-0.98
		c-0.4-0.12-0.61-0.37-0.62-0.76c-0.01-0.49,0.34-0.8,1.05-0.92c0-0.13,0.01-0.24,0.04-0.33c0.03-0.09,0.07-0.16,0.13-0.21
		c0.06-0.05,0.12-0.08,0.19-0.1C48.12,94.91,48.19,94.9,48.27,94.9L48.27,94.9z M50,98.49c0.19,0,0.33,0.04,0.44,0.13
		c0.11,0.09,0.17,0.2,0.17,0.33c0,0.14-0.05,0.26-0.16,0.35c-0.11,0.09-0.26,0.14-0.43,0.15l-0.21,0.01c-0.17,0-0.32-0.04-0.44-0.12
		c-0.12-0.09-0.18-0.2-0.18-0.35c0-0.13,0.05-0.24,0.15-0.34c0.1-0.1,0.25-0.15,0.44-0.15L50,98.49L50,98.49z M50.94,94.41
		c0.16-0.02,0.31,0,0.44,0.07c0.13,0.07,0.2,0.18,0.22,0.33l0.4,3.08c0.03,0.26,0.29,0.35,0.76,0.29l1.49-0.19
		c0.2-0.03,0.35,0,0.47,0.08c0.12,0.08,0.18,0.19,0.2,0.32c0.02,0.13-0.02,0.24-0.11,0.35c-0.09,0.11-0.24,0.17-0.43,0.2l-1.56,0.2
		c-1.23,0.16-1.9-0.16-2-0.96l-0.42-3.23c-0.02-0.13,0.02-0.25,0.12-0.35C50.62,94.5,50.76,94.43,50.94,94.41L50.94,94.41z
		 M56.41,93.47c0.27-0.06,0.54-0.09,0.83-0.09c0.28,0,0.54,0.03,0.78,0.09c0.24,0.06,0.44,0.15,0.61,0.27
		c0.17,0.12,0.27,0.26,0.31,0.44l0.59,2.6c0.04,0.16,0.02,0.32-0.06,0.49c-0.08,0.17-0.2,0.33-0.37,0.49
		c-0.17,0.15-0.39,0.3-0.65,0.42c-0.26,0.13-0.56,0.23-0.89,0.3c-0.28,0.06-0.56,0.09-0.84,0.1c-0.28,0-0.54-0.03-0.77-0.09
		c-0.23-0.06-0.43-0.15-0.59-0.26c-0.16-0.12-0.26-0.26-0.3-0.43l-0.59-2.6c-0.04-0.17-0.02-0.34,0.05-0.51
		c0.07-0.17,0.19-0.33,0.36-0.49c0.17-0.15,0.38-0.29,0.64-0.42C55.79,93.65,56.08,93.55,56.41,93.47L56.41,93.47z M56.65,94.4
		c-0.7,0.16-1.02,0.37-0.96,0.63l0.54,2.35c0.06,0.26,0.43,0.31,1.12,0.16c0.72-0.16,1.05-0.37,0.99-0.63l-0.53-2.32
		C57.74,94.31,57.35,94.25,56.65,94.4L56.65,94.4z M61.81,93.62c1.19-0.4,1.92-0.18,2.21,0.65l0.3,0.88
		c0.26,0.77-0.31,1.4-1.72,1.87c-1.48,0.49-2.35,0.36-2.61-0.39l-0.82-2.4c-0.27-0.78,0.32-1.41,1.75-1.89l1.06-0.36
		c0.18-0.06,0.34-0.06,0.47-0.01c0.13,0.06,0.22,0.15,0.26,0.27c0.04,0.13,0.03,0.26-0.05,0.38c-0.08,0.12-0.2,0.21-0.36,0.27
		l-1.05,0.35c-0.68,0.23-0.99,0.46-0.91,0.69l0.76,2.23c0.07,0.2,0.41,0.2,1.03,0c0.75-0.25,1.08-0.48,1.01-0.68l-0.26-0.77
		c-0.09-0.27-0.35-0.33-0.77-0.19l-0.55,0.18c-0.18,0.06-0.34,0.06-0.47,0.01c-0.13-0.05-0.22-0.14-0.26-0.27
		c-0.04-0.13-0.03-0.25,0.04-0.37c0.07-0.12,0.19-0.22,0.38-0.28L61.81,93.62L61.81,93.62z M63.73,91.29
		c0.15-0.07,0.3-0.09,0.44-0.06c0.14,0.03,0.25,0.11,0.31,0.25l1.64,3.58c0.07,0.15,0.07,0.29-0.01,0.42
		c-0.07,0.13-0.18,0.23-0.34,0.3c-0.15,0.07-0.3,0.08-0.44,0.05c-0.14-0.03-0.25-0.13-0.32-0.28l-1.64-3.58
		c-0.06-0.14-0.06-0.27,0.02-0.4C63.48,91.45,63.59,91.36,63.73,91.29L63.73,91.29z M67.01,89.6c1.32-0.67,2.16-0.65,2.54,0.08
		c0.17,0.32,0.08,0.57-0.27,0.75c-0.37,0.19-0.63,0.14-0.78-0.16c-0.1-0.19-0.43-0.13-0.99,0.15c-0.68,0.35-0.98,0.61-0.89,0.78
		l0.16,0.31c0.1,0.19,0.47,0.11,1.12-0.22c1.36-0.69,2.21-0.7,2.57-0.02l0.39,0.75c0.38,0.73-0.1,1.44-1.46,2.13
		c-1.36,0.69-2.22,0.69-2.59-0.02l-0.2-0.38c-0.15-0.28-0.04-0.51,0.32-0.7c0.36-0.18,0.61-0.13,0.76,0.15l0.18,0.34
		c0.09,0.17,0.44,0.09,1.07-0.23c0.67-0.34,0.95-0.59,0.87-0.76l-0.35-0.66c-0.1-0.19-0.48-0.12-1.13,0.22
		c-1.35,0.69-2.22,0.68-2.59-0.03l-0.18-0.34C65.18,91,65.66,90.29,67.01,89.6L67.01,89.6z M72.03,86.54
		c0.15-0.11,0.3-0.15,0.44-0.14c0.14,0.01,0.25,0.07,0.33,0.18c0.08,0.11,0.1,0.24,0.07,0.38c-0.04,0.14-0.13,0.26-0.28,0.36
		l-2.77,1.95c-0.15,0.11-0.3,0.15-0.45,0.13c-0.15-0.02-0.26-0.08-0.33-0.18c-0.08-0.11-0.1-0.23-0.06-0.37
		c0.03-0.14,0.13-0.26,0.28-0.36L72.03,86.54L72.03,86.54z M70.86,88.73c0.13-0.09,0.27-0.14,0.42-0.14c0.15,0,0.27,0.06,0.35,0.18
		l1.29,1.78c0.05,0.07,0.13,0.08,0.24,0.03c0.11-0.06,0.22-0.11,0.34-0.18c0.12-0.06,0.25-0.1,0.38-0.12
		c0.13-0.02,0.25,0.04,0.35,0.18c0.19,0.26,0.12,0.51-0.21,0.74c-0.94,0.66-1.59,0.74-1.95,0.24l-1.42-1.98
		c-0.09-0.12-0.11-0.25-0.06-0.38C70.62,88.94,70.72,88.83,70.86,88.73L70.86,88.73z M73.08,85.72c0.13-0.1,0.27-0.15,0.42-0.16
		c0.15,0,0.27,0.05,0.36,0.17l2.45,3.09c0.1,0.13,0.13,0.27,0.1,0.41c-0.04,0.15-0.12,0.27-0.25,0.37c-0.13,0.1-0.27,0.15-0.42,0.15
		c-0.15,0-0.27-0.07-0.38-0.2l-2.45-3.09c-0.09-0.12-0.12-0.25-0.08-0.39C72.87,85.94,72.95,85.82,73.08,85.72L73.08,85.72z
		 M75.29,83.66c0.21-0.2,0.43-0.36,0.68-0.51c0.24-0.14,0.48-0.25,0.71-0.32c0.23-0.07,0.45-0.09,0.65-0.07
		c0.2,0.02,0.36,0.09,0.48,0.22l0.21,0.21c0.11,0.11,0.15,0.23,0.12,0.37c-0.02,0.14-0.1,0.26-0.22,0.38
		c-0.12,0.12-0.26,0.18-0.41,0.2c-0.15,0.02-0.27-0.03-0.37-0.13l-0.1-0.1c-0.09-0.09-0.24-0.09-0.44,0
		c-0.21,0.09-0.42,0.23-0.63,0.43c-0.24,0.23-0.4,0.44-0.48,0.64c-0.08,0.2-0.08,0.34,0,0.41l1.62,1.69
		c0.05,0.05,0.12,0.07,0.21,0.06c0.09-0.01,0.18-0.04,0.29-0.08c0.11-0.04,0.21-0.1,0.31-0.16c0.1-0.07,0.19-0.14,0.27-0.21
		c0.11-0.1,0.2-0.21,0.28-0.32c0.08-0.11,0.14-0.21,0.18-0.31c0.04-0.1,0.07-0.19,0.07-0.27c0.01-0.08-0.01-0.14-0.05-0.18
		l-0.42-0.43c-0.11-0.11-0.14-0.24-0.12-0.38c0.03-0.14,0.1-0.27,0.22-0.38c0.13-0.12,0.26-0.18,0.4-0.2
		c0.14-0.02,0.27,0.03,0.37,0.14l0.53,0.55c0.11,0.12,0.18,0.27,0.21,0.46c0.02,0.18,0,0.39-0.06,0.61
		c-0.07,0.22-0.18,0.45-0.34,0.69c-0.16,0.24-0.36,0.47-0.6,0.7c-0.2,0.19-0.42,0.35-0.65,0.5c-0.24,0.14-0.47,0.25-0.7,0.32
		c-0.23,0.07-0.45,0.1-0.65,0.09c-0.2-0.01-0.36-0.08-0.49-0.21L74.5,86.1c-0.11-0.12-0.18-0.27-0.21-0.45
		c-0.02-0.18-0.01-0.38,0.06-0.6c0.06-0.22,0.17-0.44,0.33-0.68C74.84,84.13,75.04,83.89,75.29,83.66L75.29,83.66z"/>
</g>
</svg>
